<?xml version="1.0" standalone="no"?>
<!DOCTYPE svg PUBLIC "-//W3C//DTD SVG 20010904//EN"
 "http://www.w3.org/TR/2001/REC-SVG-20010904/DTD/svg10.dtd">
<svg version="1.0" xmlns="http://www.w3.org/2000/svg"
 width="400.000000pt" height="400.000000pt" viewBox="0 0 400.000000 400.000000"
 preserveAspectRatio="xMidYMid meet">
<metadata>
Created by potrace 1.16, written by Peter Selinger 2001-2019
</metadata>
<g transform="translate(0.000000,400.000000) scale(0.100000,-0.100000)"
fill="#000000" stroke="none">
<path d="M2752 3993 c2 -5 31 -63 66 -131 199 -390 316 -862 310 -1252 -2 -91
-3 -104 -5 -47 -3 67 -6 78 -20 73 -10 -4 -21 1 -30 14 -12 16 -18 18 -34 9
-12 -6 -33 -13 -47 -15 -15 -3 -32 -10 -39 -15 -7 -6 -16 -8 -22 -5 -5 3 -21
2 -36 -4 -19 -7 -31 -7 -40 0 -6 5 -15 7 -18 3 -4 -3 -13 0 -21 6 -11 9 -20
10 -35 2 -11 -6 -30 -11 -43 -11 -13 0 -34 -7 -47 -16 -14 -10 -26 -13 -30 -7
-11 18 -48 24 -58 11 -5 -7 -22 -58 -38 -113 -54 -194 -134 -404 -252 -662
l-65 -142 -47 5 c-102 13 -337 55 -448 80 -371 83 -684 197 -975 355 -70 38
-134 69 -143 69 -8 0 -15 4 -15 9 0 5 -16 19 -36 32 -31 19 -41 21 -65 12 -24
-10 -29 -8 -34 8 -8 23 -18 24 -50 3 -13 -9 -28 -13 -34 -10 -5 3 -21 -1 -37
-9 -15 -7 -31 -12 -35 -9 -5 3 -22 -2 -39 -11 -22 -11 -29 -20 -22 -28 43 -55
122 -167 117 -167 -9 0 -152 197 -211 292 -32 51 -84 145 -117 208 l-59 115 7
-95 c13 -199 62 -518 115 -755 84 -377 211 -711 356 -932 72 -112 208 -248
294 -295 163 -90 391 -132 885 -163 132 -9 298 -22 369 -30 368 -43 669 -141
953 -313 94 -57 107 -62 160 -62 l58 0 -4 51 c-5 78 17 326 40 446 56 299 152
524 414 973 163 281 261 476 312 625 37 107 38 114 38 250 -1 135 -2 144 -38
248 -132 385 -485 836 -1002 1280 -117 101 -153 127 -177 127 -16 0 -28 -3
-26 -7z"/>
</g>
</svg>
